<mxfile host="65bd71144e">
    <diagram id="_0jdnXlsnkMysWjdFJqG" name="ページ1">
        <mxGraphModel dx="1066" dy="435" grid="1" gridSize="10" guides="1" tooltips="1" connect="1" arrows="1" fold="1" page="1" pageScale="1" pageWidth="827" pageHeight="1169" math="0" shadow="0">
            <root>
                <mxCell id="0"/>
                <mxCell id="1" parent="0"/>
                <mxCell id="47" style="edgeStyle=none;html=1;exitX=0.75;exitY=1;exitDx=0;exitDy=0;endArrow=none;endFill=0;" edge="1" parent="1" source="43">
                    <mxGeometry relative="1" as="geometry">
                        <mxPoint x="630" y="340" as="targetPoint"/>
                    </mxGeometry>
                </mxCell>
                <mxCell id="50" style="edgeStyle=none;html=1;exitX=0.5;exitY=1;exitDx=0;exitDy=0;startArrow=none;startFill=0;endArrow=none;endFill=0;" edge="1" parent="1" source="43">
                    <mxGeometry relative="1" as="geometry">
                        <mxPoint x="490" y="340" as="targetPoint"/>
                    </mxGeometry>
                </mxCell>
                <mxCell id="43" value="" style="rounded=0;whiteSpace=wrap;html=1;" vertex="1" parent="1">
                    <mxGeometry x="210" y="80" width="560" height="230" as="geometry"/>
                </mxCell>
                <mxCell id="26" style="edgeStyle=orthogonalEdgeStyle;html=1;exitX=1;exitY=0.5;exitDx=0;exitDy=0;entryX=0.5;entryY=1;entryDx=0;entryDy=0;rounded=0;endArrow=open;endFill=0;" edge="1" parent="1" source="14" target="24">
                    <mxGeometry relative="1" as="geometry"/>
                </mxCell>
                <mxCell id="51" style="edgeStyle=orthogonalEdgeStyle;html=1;exitX=0.25;exitY=1;exitDx=0;exitDy=0;entryX=0.5;entryY=1;entryDx=0;entryDy=0;rounded=0;startArrow=open;startFill=0;endArrow=none;endFill=0;" edge="1" parent="1" source="14" target="43">
                    <mxGeometry relative="1" as="geometry">
                        <Array as="points">
                            <mxPoint x="480" y="300"/>
                            <mxPoint x="490" y="300"/>
                        </Array>
                    </mxGeometry>
                </mxCell>
                <mxCell id="14" value="" style="rounded=0;whiteSpace=wrap;html=1;" vertex="1" parent="1">
                    <mxGeometry x="440" y="160" width="160" height="120" as="geometry"/>
                </mxCell>
                <mxCell id="17" value="&lt;font&gt;clock&lt;/font&gt;" style="text;html=1;align=center;verticalAlign=middle;resizable=0;points=[];autosize=1;strokeColor=none;fillColor=none;fontSize=14;fontFamily=Lucida Console;labelBackgroundColor=none;" vertex="1" parent="1">
                    <mxGeometry x="520" y="245" width="70" height="30" as="geometry"/>
                </mxCell>
                <mxCell id="19" value="&lt;font&gt;reset&lt;/font&gt;" style="text;html=1;align=center;verticalAlign=middle;resizable=0;points=[];autosize=1;strokeColor=none;fillColor=none;fontSize=14;fontFamily=Lucida Console;labelBackgroundColor=none;" vertex="1" parent="1">
                    <mxGeometry x="440" y="251.88" width="70" height="30" as="geometry"/>
                </mxCell>
                <mxCell id="45" style="edgeStyle=orthogonalEdgeStyle;html=1;exitX=0;exitY=0.5;exitDx=0;exitDy=0;entryX=0.75;entryY=1;entryDx=0;entryDy=0;rounded=0;endArrow=none;endFill=0;" edge="1" parent="1" source="21" target="43">
                    <mxGeometry relative="1" as="geometry">
                        <Array as="points">
                            <mxPoint x="562" y="290"/>
                            <mxPoint x="630" y="290"/>
                        </Array>
                    </mxGeometry>
                </mxCell>
                <mxCell id="21" value="" style="triangle;whiteSpace=wrap;html=1;rotation=-90;" vertex="1" parent="1">
                    <mxGeometry x="556.88" y="268.13" width="10" height="13.75" as="geometry"/>
                </mxCell>
                <mxCell id="22" value="&lt;font&gt;register_r&lt;/font&gt;" style="text;html=1;align=center;verticalAlign=middle;resizable=0;points=[];autosize=1;strokeColor=none;fillColor=none;fontSize=14;fontFamily=Lucida Console;labelBackgroundColor=none;" vertex="1" parent="1">
                    <mxGeometry x="465" y="133" width="110" height="30" as="geometry"/>
                </mxCell>
                <mxCell id="30" style="edgeStyle=none;html=1;exitX=0.5;exitY=0;exitDx=0;exitDy=0;endArrow=open;endFill=0;" edge="1" parent="1" source="24">
                    <mxGeometry relative="1" as="geometry">
                        <mxPoint x="800.0000000000002" y="220.24242424242425" as="targetPoint"/>
                    </mxGeometry>
                </mxCell>
                <mxCell id="24" value="" style="shape=trapezoid;perimeter=trapezoidPerimeter;whiteSpace=wrap;html=1;fixedSize=1;rotation=90;" vertex="1" parent="1">
                    <mxGeometry x="640" y="180" width="120" height="80" as="geometry"/>
                </mxCell>
                <mxCell id="25" value="&lt;font&gt;output_&lt;br&gt;decoder&lt;/font&gt;" style="text;html=1;align=center;verticalAlign=middle;resizable=0;points=[];autosize=1;strokeColor=none;fillColor=none;fontSize=14;fontFamily=Lucida Console;labelBackgroundColor=none;" vertex="1" parent="1">
                    <mxGeometry x="650" y="120" width="80" height="50" as="geometry"/>
                </mxCell>
                <mxCell id="27" value="state" style="text;html=1;align=center;verticalAlign=middle;resizable=0;points=[];autosize=1;strokeColor=none;fillColor=none;fontSize=14;fontFamily=Lucida Console;labelBackgroundColor=none;" vertex="1" parent="1">
                    <mxGeometry x="590" y="220" width="70" height="30" as="geometry"/>
                </mxCell>
                <mxCell id="28" value="q" style="text;html=1;align=center;verticalAlign=middle;resizable=0;points=[];autosize=1;strokeColor=none;fillColor=none;fontSize=14;fontFamily=Lucida Console;labelBackgroundColor=none;" vertex="1" parent="1">
                    <mxGeometry x="570" y="205" width="30" height="30" as="geometry"/>
                </mxCell>
                <mxCell id="29" value="d" style="text;html=1;align=center;verticalAlign=middle;resizable=0;points=[];autosize=1;strokeColor=none;fillColor=none;fontSize=14;fontFamily=Lucida Console;labelBackgroundColor=none;" vertex="1" parent="1">
                    <mxGeometry x="435" y="205" width="30" height="30" as="geometry"/>
                </mxCell>
                <mxCell id="31" value="state" style="text;html=1;align=center;verticalAlign=middle;resizable=0;points=[];autosize=1;strokeColor=none;fillColor=none;fontSize=14;fontFamily=Lucida Console;labelBackgroundColor=none;" vertex="1" parent="1">
                    <mxGeometry x="650" y="205" width="70" height="30" as="geometry"/>
                </mxCell>
                <mxCell id="32" value="y" style="text;html=1;align=center;verticalAlign=middle;resizable=0;points=[];autosize=1;strokeColor=none;fillColor=none;fontSize=14;fontFamily=Lucida Console;labelBackgroundColor=none;" vertex="1" parent="1">
                    <mxGeometry x="710" y="205" width="30" height="30" as="geometry"/>
                </mxCell>
                <mxCell id="33" value="y" style="text;html=1;align=center;verticalAlign=middle;resizable=0;points=[];autosize=1;strokeColor=none;fillColor=none;fontSize=14;fontFamily=Lucida Console;labelBackgroundColor=none;" vertex="1" parent="1">
                    <mxGeometry x="800" y="205" width="30" height="30" as="geometry"/>
                </mxCell>
                <mxCell id="36" style="edgeStyle=none;html=1;exitX=0;exitY=0.75;exitDx=0;exitDy=0;endArrow=none;endFill=0;startArrow=open;startFill=0;" edge="1" parent="1" source="34">
                    <mxGeometry relative="1" as="geometry">
                        <mxPoint x="190" y="250" as="targetPoint"/>
                    </mxGeometry>
                </mxCell>
                <mxCell id="37" style="edgeStyle=orthogonalEdgeStyle;html=1;exitX=0;exitY=0.25;exitDx=0;exitDy=0;rounded=0;curved=0;startArrow=open;startFill=0;endArrow=oval;endFill=1;" edge="1" parent="1" source="34">
                    <mxGeometry relative="1" as="geometry">
                        <mxPoint x="630" y="220" as="targetPoint"/>
                        <Array as="points">
                            <mxPoint x="240" y="190"/>
                            <mxPoint x="240" y="110"/>
                            <mxPoint x="630" y="110"/>
                        </Array>
                    </mxGeometry>
                </mxCell>
                <mxCell id="38" style="edgeStyle=none;html=1;exitX=1;exitY=0.5;exitDx=0;exitDy=0;entryX=0;entryY=0.5;entryDx=0;entryDy=0;endArrow=open;endFill=0;" edge="1" parent="1" source="34" target="14">
                    <mxGeometry relative="1" as="geometry"/>
                </mxCell>
                <mxCell id="34" value="" style="rounded=0;whiteSpace=wrap;html=1;" vertex="1" parent="1">
                    <mxGeometry x="280" y="160" width="100" height="120" as="geometry"/>
                </mxCell>
                <mxCell id="35" value="&lt;font&gt;next_state_&lt;/font&gt;&lt;div&gt;&lt;font&gt;generator&lt;/font&gt;&lt;/div&gt;" style="text;html=1;align=center;verticalAlign=middle;resizable=0;points=[];autosize=1;strokeColor=none;fillColor=none;fontSize=14;fontFamily=Lucida Console;labelBackgroundColor=none;" vertex="1" parent="1">
                    <mxGeometry x="270" y="114" width="120" height="50" as="geometry"/>
                </mxCell>
                <mxCell id="39" value="next_&lt;br&gt;state" style="text;html=1;align=center;verticalAlign=middle;resizable=0;points=[];autosize=1;strokeColor=none;fillColor=none;fontSize=14;fontFamily=Lucida Console;labelBackgroundColor=none;" vertex="1" parent="1">
                    <mxGeometry x="370" y="218.13" width="70" height="50" as="geometry"/>
                </mxCell>
                <mxCell id="40" value="next_&lt;br&gt;state" style="text;html=1;align=center;verticalAlign=middle;resizable=0;points=[];autosize=1;strokeColor=none;fillColor=none;fontSize=14;fontFamily=Lucida Console;labelBackgroundColor=none;" vertex="1" parent="1">
                    <mxGeometry x="310" y="195" width="70" height="50" as="geometry"/>
                </mxCell>
                <mxCell id="41" value="state" style="text;html=1;align=center;verticalAlign=middle;resizable=0;points=[];autosize=1;strokeColor=none;fillColor=none;fontSize=14;fontFamily=Lucida Console;labelBackgroundColor=none;" vertex="1" parent="1">
                    <mxGeometry x="271" y="173" width="70" height="30" as="geometry"/>
                </mxCell>
                <mxCell id="42" value="p" style="text;html=1;align=center;verticalAlign=middle;resizable=0;points=[];autosize=1;strokeColor=none;fillColor=none;fontSize=14;fontFamily=Lucida Console;labelBackgroundColor=none;" vertex="1" parent="1">
                    <mxGeometry x="280" y="238.13" width="30" height="30" as="geometry"/>
                </mxCell>
                <mxCell id="44" value="p" style="text;html=1;align=center;verticalAlign=middle;resizable=0;points=[];autosize=1;strokeColor=none;fillColor=none;fontSize=14;fontFamily=Lucida Console;labelBackgroundColor=none;" vertex="1" parent="1">
                    <mxGeometry x="160" y="238.13" width="30" height="30" as="geometry"/>
                </mxCell>
                <mxCell id="46" value="" style="triangle;whiteSpace=wrap;html=1;rotation=-90;" vertex="1" parent="1">
                    <mxGeometry x="625" y="298" width="10" height="13.75" as="geometry"/>
                </mxCell>
                <mxCell id="52" value="&lt;font&gt;clock&lt;/font&gt;" style="text;html=1;align=center;verticalAlign=middle;resizable=0;points=[];autosize=1;strokeColor=none;fillColor=none;fontSize=14;fontFamily=Lucida Console;labelBackgroundColor=none;" vertex="1" parent="1">
                    <mxGeometry x="600" y="340" width="70" height="30" as="geometry"/>
                </mxCell>
                <mxCell id="53" value="&lt;font&gt;reset&lt;/font&gt;" style="text;html=1;align=center;verticalAlign=middle;resizable=0;points=[];autosize=1;strokeColor=none;fillColor=none;fontSize=14;fontFamily=Lucida Console;labelBackgroundColor=none;" vertex="1" parent="1">
                    <mxGeometry x="455" y="340" width="70" height="30" as="geometry"/>
                </mxCell>
                <mxCell id="54" value="&lt;font&gt;my_stm1&lt;/font&gt;" style="text;html=1;align=center;verticalAlign=middle;resizable=0;points=[];autosize=1;strokeColor=none;fillColor=none;fontSize=14;fontFamily=Lucida Console;labelBackgroundColor=none;" vertex="1" parent="1">
                    <mxGeometry x="455" y="50" width="80" height="30" as="geometry"/>
                </mxCell>
            </root>
        </mxGraphModel>
    </diagram>
</mxfile>